<svg xmlns="http://www.w3.org/2000/svg" width="560" height="260" viewBox="0 0 140 65" shape-rendering="crispEdges"><title>Wildcraft A01 精力 HUD 布局源稿</title><rect width="140" height="65" fill="#293a2b"/><g id="vanilla-hearts-reference"><image href="../references/heart-full.png" x="12" y="8" width="9" height="9"/><image href="../references/heart-full.png" x="20" y="8" width="9" height="9"/><image href="../references/heart-full.png" x="28" y="8" width="9" height="9"/><image href="../references/heart-full.png" x="36" y="8" width="9" height="9"/><image href="../references/heart-full.png" x="44" y="8" width="9" height="9"/><image href="../references/heart-full.png" x="52" y="8" width="9" height="9"/><image href="../references/heart-full.png" x="60" y="8" width="9" height="9"/><image href="../references/heart-full.png" x="68" y="8" width="9" height="9"/><image href="../references/heart-full.png" x="76" y="8" width="9" height="9"/><image href="../references/heart-full.png" x="84" y="8" width="9" height="9"/></g><text id="label-placeholder" x="12" y="31" fill="#dce8d0" font-size="9" font-family="sans-serif">精力 64 / 100</text><g id="track" transform="translate(12 34)"><rect x="1" y="0" width="110" height="1" fill="#18251f"/><rect x="0" y="1" width="1" height="1" fill="#18251f"/><rect x="1" y="1" width="110" height="1" fill="#9dac93"/><rect x="111" y="1" width="1" height="1" fill="#18251f"/><rect x="0" y="2" width="1" height="1" fill="#18251f"/><rect x="1" y="2" width="1" height="1" fill="#819477"/><rect x="2" y="2" width="108" height="1" fill="#25372b"/><rect x="110" y="2" width="1" height="1" fill="#60715e"/><rect x="111" y="2" width="1" height="1" fill="#18251f"/><rect x="0" y="3" width="1" height="1" fill="#18251f"/><rect x="1" y="3" width="1" height="1" fill="#819477"/><rect x="2" y="3" width="108" height="1" fill="#1b2b22"/><rect x="110" y="3" width="1" height="1" fill="#60715e"/><rect x="111" y="3" width="1" height="1" fill="#18251f"/><rect x="0" y="4" width="1" height="1" fill="#18251f"/><rect x="1" y="4" width="1" height="1" fill="#819477"/><rect x="2" y="4" width="108" height="1" fill="#1b2b22"/><rect x="110" y="4" width="1" height="1" fill="#60715e"/><rect x="111" y="4" width="1" height="1" fill="#18251f"/><rect x="0" y="5" width="1" height="1" fill="#18251f"/><rect x="1" y="5" width="110" height="1" fill="#60715e"/><rect x="111" y="5" width="1" height="1" fill="#18251f"/><rect x="1" y="6" width="110" height="1" fill="#18251f"/></g><g id="fill" transform="translate(14 36)"><rect x="0" y="0" width="69" height="1" fill="#b6eb91"/><rect x="0" y="1" width="69" height="1" fill="#72d77e"/><rect x="0" y="2" width="69" height="1" fill="#45965d"/></g></svg>