<svg xmlns="http://www.w3.org/2000/svg" viewBox="0 0 32 32" shape-rendering="crispEdges"><rect width="32" height="32" fill="#e3e9dc"/><path d="M0,0 V32 M0,0 H32" stroke="#c6d1ba" stroke-width=".05"/><path d="M1,0 V32 M0,1 H32" stroke="#c6d1ba" stroke-width=".05"/><path d="M2,0 V32 M0,2 H32" stroke="#c6d1ba" stroke-width=".05"/><path d="M3,0 V32 M0,3 H32" stroke="#c6d1ba" stroke-width=".05"/><path d="M4,0 V32 M0,4 H32" stroke="#c6d1ba" stroke-width=".05"/><path d="M5,0 V32 M0,5 H32" stroke="#c6d1ba" stroke-width=".05"/><path d="M6,0 V32 M0,6 H32" stroke="#c6d1ba" stroke-width=".05"/><path d="M7,0 V32 M0,7 H32" stroke="#c6d1ba" stroke-width=".05"/><path d="M8,0 V32 M0,8 H32" stroke="#c6d1ba" stroke-width=".05"/><path d="M9,0 V32 M0,9 H32" stroke="#c6d1ba" stroke-width=".05"/><path d="M10,0 V32 M0,10 H32" stroke="#c6d1ba" stroke-width=".05"/><path d="M11,0 V32 M0,11 H32" stroke="#c6d1ba" stroke-width=".05"/><path d="M12,0 V32 M0,12 H32" stroke="#c6d1ba" stroke-width=".05"/><path d="M13,0 V32 M0,13 H32" stroke="#c6d1ba" stroke-width=".05"/><path d="M14,0 V32 M0,14 H32" stroke="#c6d1ba" stroke-width=".05"/><path d="M15,0 V32 M0,15 H32" stroke="#c6d1ba" stroke-width=".05"/><path d="M16,0 V32 M0,16 H32" stroke="#c6d1ba" stroke-width=".05"/><path d="M17,0 V32 M0,17 H32" stroke="#c6d1ba" stroke-width=".05"/><path d="M18,0 V32 M0,18 H32" stroke="#c6d1ba" stroke-width=".05"/><path d="M19,0 V32 M0,19 H32" stroke="#c6d1ba" stroke-width=".05"/><path d="M20,0 V32 M0,20 H32" stroke="#c6d1ba" stroke-width=".05"/><path d="M21,0 V32 M0,21 H32" stroke="#c6d1ba" stroke-width=".05"/><path d="M22,0 V32 M0,22 H32" stroke="#c6d1ba" stroke-width=".05"/><path d="M23,0 V32 M0,23 H32" stroke="#c6d1ba" stroke-width=".05"/><path d="M24,0 V32 M0,24 H32" stroke="#c6d1ba" stroke-width=".05"/><path d="M25,0 V32 M0,25 H32" stroke="#c6d1ba" stroke-width=".05"/><path d="M26,0 V32 M0,26 H32" stroke="#c6d1ba" stroke-width=".05"/><path d="M27,0 V32 M0,27 H32" stroke="#c6d1ba" stroke-width=".05"/><path d="M28,0 V32 M0,28 H32" stroke="#c6d1ba" stroke-width=".05"/><path d="M29,0 V32 M0,29 H32" stroke="#c6d1ba" stroke-width=".05"/><path d="M30,0 V32 M0,30 H32" stroke="#c6d1ba" stroke-width=".05"/><path d="M31,0 V32 M0,31 H32" stroke="#c6d1ba" stroke-width=".05"/><path d="M32,0 V32 M0,32 H32" stroke="#c6d1ba" stroke-width=".05"/><rect x="11" y="11" width="11" height="11" fill="#b8d2ba" opacity=".6"/><rect x="2" y="2" width="28" height="28" fill="none" stroke="#9a7a39" stroke-width=".12"/><rect x="5" y="14" width="5" height="3" fill="#18271c" opacity=".72"/><rect x="22" y="14" width="5" height="3" fill="#18271c" opacity=".72"/><rect x="14" y="5" width="3" height="5" fill="#18271c" opacity=".72"/><rect x="14" y="22" width="3" height="5" fill="#18271c" opacity=".72"/><rect x="2" y="14" width="4" height="3" fill="#18271c" opacity=".72"/><rect x="26" y="14" width="4" height="3" fill="#18271c" opacity=".72"/><rect x="14" y="2" width="3" height="4" fill="#18271c" opacity=".72"/><rect x="14" y="26" width="3" height="4" fill="#18271c" opacity=".72"/><rect x="6" y="15" width="3" height="1" fill="#f0b84d"/><rect x="23" y="15" width="3" height="1" fill="#f0b84d"/><rect x="15" y="6" width="1" height="3" fill="#f0b84d"/><rect x="15" y="23" width="1" height="3" fill="#f0b84d"/><rect x="3" y="15" width="2" height="1" fill="#f0b84d"/><rect x="27" y="15" width="2" height="1" fill="#f0b84d"/><rect x="15" y="3" width="1" height="2" fill="#f0b84d"/><rect x="15" y="27" width="1" height="2" fill="#f0b84d"/></svg>